<svg xmlns="http://www.w3.org/2000/svg" width="86" height="25" viewBox="0 0 86 25">
    <g fill="none" fill-rule="nonzero">
        <path fill="#000" d="M81.93 25H3.15C1.387 25 0 23.625 0 21.875V3.125C0 1.375 1.387 0 3.151 0H81.93c1.764 0 3.15 1.375 3.15 3.125v18.75c0 1.688-1.386 3.125-3.15 3.125z"/>
        <path fill="#A6A6A6" d="M81.93.5c1.45 0 2.647 1.188 2.647 2.625v18.75c0 1.438-1.198 2.625-2.647 2.625H3.15c-1.45 0-2.647-1.188-2.647-2.625V3.125C.504 1.687 1.702.5 3.151.5H81.93zm0-.5H3.15C1.387 0 0 1.375 0 3.125v18.75C0 23.625 1.387 25 3.151 25H81.93c1.764 0 3.15-1.375 3.15-3.125V3.125C85.08 1.437 83.695 0 81.93 0z"/>
        <g fill="#FFF">
            <path d="M15.086 12.102a3.412 3.412 0 0 1 1.636-2.866 3.523 3.523 0 0 0-2.771-1.49c-1.166-.121-2.297.694-2.89.694-.607 0-1.521-.681-2.506-.661a3.693 3.693 0 0 0-3.106 1.883c-1.343 2.311-.341 5.708.945 7.576.644.915 1.396 1.937 2.38 1.9.963-.039 1.323-.61 2.485-.61 1.152 0 1.49.61 2.494.588 1.033-.017 1.684-.92 2.305-1.843a7.549 7.549 0 0 0 1.055-2.134 3.3 3.3 0 0 1-2.027-3.037zM13.189 6.518a3.35 3.35 0 0 0 .774-2.41c-.861.09-1.656.5-2.227 1.146a3.189 3.189 0 0 0-.795 2.32c.873.01 1.701-.38 2.248-1.056z"/>
            <g>
                <path d="M27.26 16.823h-3.287l-.79 2.317h-1.391l3.113-8.572h1.446l3.113 8.572h-1.416l-.788-2.317zm-2.947-1.07h2.606l-1.285-3.76h-.036l-1.285 3.76zM36.187 16.015c0 1.942-1.045 3.19-2.623 3.19a2.134 2.134 0 0 1-1.978-1.093h-.03v3.095h-1.29V12.89h1.249v1.04h.023a2.233 2.233 0 0 1 2.002-1.105c1.595 0 2.647 1.254 2.647 3.19zm-1.326 0c0-1.265-.658-2.097-1.661-2.097-.986 0-1.65.85-1.65 2.097 0 1.26.664 2.103 1.65 2.103 1.003 0 1.66-.826 1.66-2.103zM43.106 16.015c0 1.942-1.046 3.19-2.623 3.19a2.134 2.134 0 0 1-1.978-1.093h-.03v3.095h-1.29V12.89h1.248v1.04h.024a2.233 2.233 0 0 1 2.002-1.105c1.595 0 2.647 1.254 2.647 3.19zm-1.326 0c0-1.265-.658-2.097-1.661-2.097-.986 0-1.65.85-1.65 2.097 0 1.26.664 2.103 1.65 2.103 1.003 0 1.66-.826 1.66-2.103zM47.679 16.751c.096.85.926 1.408 2.061 1.408 1.088 0 1.87-.558 1.87-1.324 0-.665-.472-1.064-1.589-1.337l-1.117-.267c-1.584-.38-2.319-1.117-2.319-2.311 0-1.48 1.297-2.495 3.138-2.495 1.822 0 3.07 1.016 3.113 2.495h-1.303c-.078-.856-.79-1.372-1.829-1.372-1.04 0-1.75.522-1.75 1.283 0 .606.454.962 1.565 1.235l.95.232c1.77.416 2.504 1.123 2.504 2.376 0 1.604-1.285 2.609-3.328 2.609-1.913 0-3.204-.981-3.287-2.532h1.32zM55.758 11.411v1.48h1.196v1.015h-1.196v3.445c0 .536.24.785.765.785.142-.003.284-.012.424-.03v1.01a3.564 3.564 0 0 1-.716.06c-1.273 0-1.77-.476-1.77-1.688v-3.582h-.913V12.89h.914v-1.479h1.296zM57.646 16.015c0-1.966 1.165-3.202 2.981-3.202 1.823 0 2.982 1.236 2.982 3.202 0 1.972-1.153 3.202-2.982 3.202-1.828 0-2.981-1.23-2.981-3.202zm4.649 0c0-1.349-.622-2.145-1.668-2.145-1.045 0-1.666.802-1.666 2.145 0 1.354.62 2.145 1.666 2.145 1.046 0 1.668-.79 1.668-2.145zM64.673 12.89h1.231v1.064h.03a1.498 1.498 0 0 1 1.512-1.13c.149 0 .297.016.442.049v1.2a1.814 1.814 0 0 0-.58-.078 1.304 1.304 0 0 0-1.005.411 1.288 1.288 0 0 0-.34 1.027v3.707h-1.29v-6.25zM73.837 17.304c-.173 1.135-1.285 1.913-2.706 1.913-1.83 0-2.964-1.218-2.964-3.172 0-1.96 1.14-3.232 2.91-3.232 1.738 0 2.832 1.188 2.832 3.083v.44h-4.44v.077c-.041.465.12.926.444 1.264.324.34.778.523 1.247.506.627.058 1.217-.299 1.452-.879h1.225zm-4.362-1.865h3.143a1.498 1.498 0 0 0-.422-1.128 1.516 1.516 0 0 0-1.12-.458 1.596 1.596 0 0 0-1.133.461c-.3.298-.469.703-.468 1.125z"/>
            </g>
            <g>
                <path d="M24.222 3.97a1.92 1.92 0 0 1 1.465.526c.379.369.558.875.489 1.38 0 1.225-.717 1.93-1.954 1.93h-1.5V3.97h1.5zm-.855 3.293h.783c.392.022.774-.12 1.04-.388s.387-.632.33-.991a1.15 1.15 0 0 0-.335-.984 1.366 1.366 0 0 0-1.035-.388h-.783v2.751zM26.904 6.357c-.054-.519.216-1.02.695-1.296a1.59 1.59 0 0 1 1.565 0c.48.275.75.777.695 1.296.055.52-.214 1.023-.694 1.298a1.59 1.59 0 0 1-1.567 0c-.48-.275-.749-.779-.694-1.298zm2.32 0c0-.627-.306-.994-.841-.994-.538 0-.84.367-.84.994 0 .633.302.997.84.997.535 0 .84-.367.84-.997zM33.788 7.806h-.642L32.5 5.674h-.05l-.644 2.132h-.635l-.864-2.895h.627l.561 2.209h.047l.644-2.209h.593l.644 2.209h.05l.558-2.209h.618zM35.375 4.911h.595v.46h.046c.16-.339.536-.546.935-.516.309-.021.612.088.823.298.21.209.307.496.262.779v1.874h-.619v-1.73c0-.466-.219-.697-.676-.697a.75.75 0 0 0-.556.208.633.633 0 0 0-.192.525v1.694h-.618V4.91zM39.02 3.78h.62v4.026h-.62zM40.499 6.357c-.054-.519.216-1.021.695-1.296a1.59 1.59 0 0 1 1.565 0c.48.275.75.777.696 1.296.054.52-.215 1.023-.695 1.298a1.59 1.59 0 0 1-1.567 0c-.48-.275-.749-.778-.694-1.298zm2.32 0c0-.627-.306-.994-.841-.994-.538 0-.84.367-.84.994 0 .633.302.997.84.997.535 0 .84-.367.84-.997zM44.106 6.987c0-.521.42-.821 1.165-.864l.849-.045v-.25c0-.306-.22-.479-.642-.479-.345 0-.584.118-.653.322h-.598c.063-.497.569-.816 1.28-.816.785 0 1.228.361 1.228.973v1.978h-.595v-.407h-.049a1.08 1.08 0 0 1-.941.454.998.998 0 0 1-.73-.219.847.847 0 0 1-.314-.647zm2.014-.247v-.242l-.765.045c-.432.027-.628.162-.628.417 0 .26.245.413.581.413a.78.78 0 0 0 .551-.158.666.666 0 0 0 .26-.475zM47.548 6.357c0-.915.509-1.494 1.3-1.494.4-.017.775.18.962.508h.046V3.78h.618v4.025h-.592v-.458h-.05c-.2.325-.58.52-.983.505-.797 0-1.3-.579-1.3-1.496zm.639 0c0 .614.313.984.837.984.521 0 .843-.375.843-.981 0-.604-.325-.984-.843-.984-.52 0-.837.372-.837.981zM53.033 6.357c-.054-.519.215-1.02.695-1.296a1.59 1.59 0 0 1 1.565 0c.48.275.749.777.695 1.296.055.52-.214 1.023-.694 1.298a1.59 1.59 0 0 1-1.567 0c-.48-.275-.75-.779-.694-1.298zm2.319 0c0-.627-.305-.994-.84-.994-.538 0-.84.367-.84.994 0 .633.302.997.84.997.535 0 .84-.367.84-.997zM56.818 4.911h.595v.46h.046c.16-.339.536-.546.935-.516.309-.021.612.088.823.298.21.209.307.496.262.779v1.874h-.619v-1.73c0-.466-.219-.697-.676-.697a.75.75 0 0 0-.556.208.633.633 0 0 0-.192.525v1.694h-.618V4.91zM62.973 4.19v.734h.679v.481h-.68v1.489c0 .303.136.436.444.436.079 0 .157-.005.236-.013v.476a2.191 2.191 0 0 1-.337.029c-.687 0-.961-.224-.961-.782V5.405h-.498v-.48h.498V4.19h.619zM64.496 3.78h.613v1.596h.05c.168-.341.55-.549.955-.518.307-.016.605.096.814.305a.907.907 0 0 1 .265.774v1.869h-.62V6.078c0-.463-.232-.697-.67-.697a.767.767 0 0 0-.578.198.647.647 0 0 0-.21.536v1.69h-.619V3.782zM70.798 7.024c-.173.546-.745.899-1.357.838a1.48 1.48 0 0 1-1.098-.438 1.25 1.25 0 0 1-.35-1.057c-.055-.383.072-.77.35-1.06a1.5 1.5 0 0 1 1.095-.452c.872 0 1.398.55 1.398 1.46v.199h-2.213v.032a.73.73 0 0 0 .219.585.862.862 0 0 0 .616.244.77.77 0 0 0 .745-.35h.595zm-2.175-.933h1.583A.668.668 0 0 0 70 5.558a.788.788 0 0 0-.565-.217.837.837 0 0 0-.577.217.712.712 0 0 0-.235.533z"/>
            </g>
        </g>
    </g>
</svg>
