<svg xmlns="http://www.w3.org/2000/svg" width="86" height="25" viewBox="0 0 86 25">
    <defs>
        <linearGradient id="a" x1="91.536%" x2="-37.559%" y1="4.839%" y2="71.968%">
            <stop offset="0%" stop-color="#00A0FF"/>
            <stop offset=".657%" stop-color="#00A1FF"/>
            <stop offset="26.01%" stop-color="#00BEFF"/>
            <stop offset="51.22%" stop-color="#00D2FF"/>
            <stop offset="76.04%" stop-color="#00DFFF"/>
            <stop offset="100%" stop-color="#00E3FF"/>
        </linearGradient>
        <linearGradient id="b" x1="107.728%" x2="-130.665%" y1="49.428%" y2="49.428%">
            <stop offset="0%" stop-color="#FFE000"/>
            <stop offset="40.87%" stop-color="#FFBD00"/>
            <stop offset="77.54%" stop-color="#FFA500"/>
            <stop offset="100%" stop-color="#FF9C00"/>
        </linearGradient>
        <linearGradient id="c" x1="86.389%" x2="-49.888%" y1="17.815%" y2="194.393%">
            <stop offset="0%" stop-color="#FF3A44"/>
            <stop offset="100%" stop-color="#C31162"/>
        </linearGradient>
        <linearGradient id="d" x1="-18.579%" x2="42.275%" y1="-54.527%" y2="24.69%">
            <stop offset="0%" stop-color="#32A071"/>
            <stop offset="6.85%" stop-color="#2DA771"/>
            <stop offset="47.62%" stop-color="#15CF74"/>
            <stop offset="80.09%" stop-color="#06E775"/>
            <stop offset="100%" stop-color="#00F076"/>
        </linearGradient>
    </defs>
    <g fill="none" fill-rule="nonzero">
        <path fill="#000" d="M81.93 25H3.15C1.387 25 0 23.625 0 21.875V3.125C0 1.375 1.387 0 3.151 0H81.93c1.764 0 3.15 1.375 3.15 3.125v18.75c0 1.688-1.386 3.125-3.15 3.125z"/>
        <path fill="#A6A6A6" d="M81.93.5c1.45 0 2.647 1.188 2.647 2.625v18.75c0 1.438-1.198 2.625-2.647 2.625H3.15c-1.45 0-2.647-1.188-2.647-2.625V3.125C.504 1.687 1.702.5 3.151.5H81.93zm0-.5H3.15C1.387 0 0 1.375 0 3.125v18.75C0 23.625 1.387 25 3.151 25H81.93c1.764 0 3.15-1.375 3.15-3.125V3.125C85.08 1.437 83.695 0 81.93 0z"/>
        <g fill="#FFF" stroke="#FFF" stroke-width=".5">
            <path d="M29.59 6.28c0 .516-.125.967-.44 1.29-.377.386-.818.58-1.384.58a1.827 1.827 0 0 1-1.384-.58c-.377-.387-.566-.839-.566-1.42 0-.58.189-1.031.566-1.418.377-.387.818-.58 1.384-.58.252 0 .503.064.755.193.252.13.44.258.566.452l-.314.322c-.252-.322-.567-.451-1.007-.451-.377 0-.755.129-1.007.451-.314.258-.44.645-.44 1.096 0 .452.126.839.44 1.097.315.257.63.45 1.007.45.44 0 .755-.128 1.07-.45.188-.194.314-.452.314-.774h-1.384v-.452h1.825v.194zM32.484 4.668h-1.698v1.225h1.573v.451h-1.573V7.57h1.698v.516h-2.201V4.216h2.201zM34.56 8.085h-.503V4.668h-1.07v-.452h2.643v.452h-1.07zM37.454 8.085V4.216h.504v3.87zM40.097 8.085h-.504V4.668h-1.069v-.452h2.58v.452h-1.07v3.417zM46.073 7.57c-.377.386-.817.58-1.384.58a1.827 1.827 0 0 1-1.384-.58c-.377-.387-.566-.839-.566-1.42 0-.58.189-1.031.566-1.418.378-.387.818-.58 1.384-.58.567 0 1.007.193 1.384.58.378.387.567.838.567 1.419 0 .58-.19 1.032-.567 1.418zm-2.39-.323c.251.258.629.451 1.006.451.378 0 .755-.129 1.007-.451.252-.258.44-.645.44-1.096 0-.452-.126-.838-.44-1.096-.252-.258-.63-.452-1.007-.452-.377 0-.755.13-1.006.452-.252.258-.44.644-.44 1.096 0 .451.125.838.44 1.096zM47.332 8.085V4.216h.566l1.824 3.031V4.216h.504v3.87h-.504l-1.95-3.16V8.085z"/>
        </g>
        <path fill="#FFF" d="M42.52 13.187c-1.508 0-2.701 1.099-2.701 2.625 0 1.465 1.193 2.625 2.7 2.625 1.507 0 2.7-1.099 2.7-2.625 0-1.587-1.193-2.625-2.7-2.625zm0 4.151c-.817 0-1.508-.671-1.508-1.587 0-.916.69-1.587 1.507-1.587.816 0 1.507.61 1.507 1.587 0 .916-.69 1.587-1.507 1.587zm-5.84-4.151c-1.508 0-2.701 1.099-2.701 2.625 0 1.465 1.193 2.625 2.7 2.625 1.507 0 2.7-1.099 2.7-2.625 0-1.587-1.193-2.625-2.7-2.625zm0 4.151c-.817 0-1.508-.671-1.508-1.587 0-.916.69-1.587 1.507-1.587.816 0 1.507.61 1.507 1.587 0 .916-.69 1.587-1.507 1.587zm-6.971-3.358v1.1h2.7c-.063.61-.314 1.098-.628 1.404-.377.366-1.005.793-2.072.793-1.696 0-2.952-1.282-2.952-2.93 0-1.649 1.319-2.93 2.952-2.93.879 0 1.57.366 2.072.793l.816-.794c-.69-.61-1.57-1.099-2.826-1.099-2.26 0-4.207 1.832-4.207 4.03 0 2.198 1.947 4.03 4.207 4.03 1.256 0 2.136-.367 2.89-1.16.753-.733 1.004-1.771 1.004-2.565 0-.244 0-.488-.063-.672H29.71zm28.51.855c-.252-.61-.88-1.648-2.262-1.648-1.381 0-2.511 1.038-2.511 2.625 0 1.465 1.13 2.625 2.637 2.625 1.193 0 1.947-.732 2.198-1.16l-.88-.61c-.313.427-.69.732-1.318.732-.628 0-1.005-.244-1.319-.793l3.58-1.466-.126-.305zm-3.643.855c0-.977.816-1.526 1.381-1.526.44 0 .88.244 1.005.55l-2.386.976zm-2.951 2.503h1.193v-7.631h-1.193v7.63zm-1.884-4.457c-.314-.305-.817-.61-1.445-.61-1.318 0-2.574 1.16-2.574 2.625s1.193 2.564 2.574 2.564c.628 0 1.13-.305 1.382-.61h.063v.366c0 .977-.566 1.526-1.445 1.526-.69 0-1.193-.488-1.318-.916l-1.005.428c.314.671 1.067 1.526 2.386 1.526 1.382 0 2.512-.794 2.512-2.686v-4.64h-1.13v.427zm-1.382 3.602c-.816 0-1.507-.671-1.507-1.587 0-.916.69-1.587 1.507-1.587.816 0 1.444.671 1.444 1.587 0 .916-.628 1.587-1.444 1.587zm15.322-6.776h-2.825v7.63h1.193v-2.868h1.632c1.32 0 2.575-.916 2.575-2.381 0-1.466-1.256-2.381-2.575-2.381zm.063 3.663H62.05V11.6h1.695c.88 0 1.382.732 1.382 1.282-.063.671-.565 1.343-1.382 1.343zm7.222-1.1c-.88 0-1.759.367-2.073 1.16l1.068.428c.251-.427.628-.55 1.068-.55.627 0 1.193.367 1.255.977v.061c-.188-.122-.69-.305-1.193-.305-1.13 0-2.26.61-2.26 1.71 0 1.037.942 1.709 1.946 1.709.817 0 1.193-.366 1.507-.733h.063v.61h1.13v-2.93c-.125-1.343-1.193-2.136-2.511-2.136zm-.126 4.213c-.377 0-.942-.183-.942-.671 0-.61.691-.794 1.256-.794.502 0 .754.122 1.068.244-.126.733-.754 1.221-1.382 1.221zm6.594-4.03l-1.319 3.298h-.063l-1.381-3.297h-1.256l2.072 4.64-1.193 2.564h1.193l3.203-7.204h-1.256zm-10.55 4.885h1.193v-7.631h-1.193v7.63z"/>
        <path fill="url(#a)" d="M.473.313C.286.5.16.813.16 1.189v13.83c0 .375.125.688.312.875l.062.063 7.727-7.76v-.125L.472.312z" transform="translate(5.992 4.365)"/>
        <path fill="url(#b)" d="M10.817 10.826L8.262 8.26v-.188l2.555-2.565.062.062 3.053 1.752c.873.501.873 1.315 0 1.815l-3.115 1.69z" transform="translate(5.992 4.365)"/>
        <path fill="url(#c)" d="M10.88 10.763L8.261 8.135l-7.79 7.822c.312.313.749.313 1.31.063l9.097-5.257" transform="translate(5.992 4.365)"/>
        <path fill="url(#d)" d="M10.88 5.507L1.781.313C1.22 0 .784.063.472.375l7.79 7.76 2.617-2.628z" transform="translate(5.992 4.365)"/>
        <g fill="#000">
            <path d="M16.808 15.066l-9.035 5.13c-.498.314-.935.251-1.246 0l-.062.063.062.063c.311.25.748.313 1.246 0l9.035-5.256z" opacity=".2"/>
            <path d="M6.465 20.197c-.187-.188-.25-.5-.25-.876v.062c0 .376.125.689.312.876v-.062h-.062z" opacity=".12"/>
        </g>
        <path fill="#000" d="M19.924 13.313l-3.116 1.753.063.062 3.053-1.752c.436-.25.623-.563.623-.876 0 .313-.25.563-.623.813z" opacity=".12"/>
        <path fill="#FFF" d="M7.773 4.74l12.151 6.947c.374.25.623.5.623.813 0-.313-.187-.626-.623-.876L7.774 4.678c-.873-.5-1.559-.063-1.559.939v.062c0-1.001.686-1.44 1.558-.938z" opacity=".25"/>
    </g>
</svg>
