<svg xmlns="http://www.w3.org/2000/svg" width="100" height="100" viewBox="0 0 100 100">
    <g fill="none" fill-rule="evenodd" stroke="#0066B3">
        <circle cx="50" cy="50" r="49" stroke-width="2"/>
        <path fill="#0066B3" fill-rule="nonzero" d="M74.154 69.737c-.915 0-1.766.28-2.472.759L56.848 55.662A8.849 8.849 0 0 0 58.89 50c0-2.15-.767-4.123-2.042-5.662l10.233-10.233a7.064 7.064 0 0 0 4.39 1.525c3.915 0 7.1-3.185 7.1-7.1 0-3.916-3.185-7.101-7.1-7.101a7.109 7.109 0 0 0-7.101 7.1c0 1.657.571 3.18 1.525 4.39L55.662 43.152A8.849 8.849 0 0 0 50 41.11c-2.15 0-4.123.767-5.662 2.042l-6.782-6.782a4.392 4.392 0 0 0 .758-2.473 4.422 4.422 0 0 0-4.417-4.417 4.422 4.422 0 0 0-4.417 4.417 4.422 4.422 0 0 0 4.417 4.417c.915 0 1.767-.28 2.473-.758l6.782 6.782A8.849 8.849 0 0 0 41.11 50a8.85 8.85 0 0 0 .504 2.947l-10.465 4.83a5.31 5.31 0 0 0-4.409-2.353 5.318 5.318 0 0 0-5.311 5.311 5.318 5.318 0 0 0 5.311 5.312 5.318 5.318 0 0 0 5.312-5.312c0-.497-.07-.979-.199-1.436l10.466-4.83a8.893 8.893 0 0 0 7.647 4.42l.595 6.55a4.424 4.424 0 0 0-3.189 4.242 4.422 4.422 0 0 0 4.417 4.417 4.422 4.422 0 0 0 4.417-4.417 4.423 4.423 0 0 0-3.974-4.395l-.596-6.55a8.86 8.86 0 0 0 4.026-1.888l14.834 14.834a4.392 4.392 0 0 0-.759 2.472 4.422 4.422 0 0 0 4.417 4.417 4.422 4.422 0 0 0 4.417-4.417 4.422 4.422 0 0 0-4.417-4.417zM26.74 64.37a3.639 3.639 0 0 1-3.634-3.635 3.639 3.639 0 0 1 3.634-3.634c1.44 0 2.687.842 3.275 2.06l.022.053c.004.01.01.018.015.027.207.457.323.962.323 1.494a3.639 3.639 0 0 1-3.635 3.635zm44.73-41.264a5.43 5.43 0 0 1 5.424 5.423 5.43 5.43 0 0 1-5.423 5.424 5.43 5.43 0 0 1-5.424-5.424 5.43 5.43 0 0 1 5.424-5.423zM31.158 33.897c0-1.51 1.23-2.74 2.74-2.74 1.51 0 2.74 1.23 2.74 2.74 0 1.51-1.23 2.74-2.74 2.74-1.51 0-2.74-1.23-2.74-2.74zM42.787 50c0-3.977 3.236-7.213 7.213-7.213s7.213 3.236 7.213 7.213-3.236 7.213-7.213 7.213-7.213-3.236-7.213-7.213zM54.53 69.681c0 1.51-1.23 2.74-2.74 2.74-1.51 0-2.74-1.23-2.74-2.74 0-1.51 1.23-2.74 2.74-2.74 1.51 0 2.74 1.23 2.74 2.74zm19.625 7.213c-1.51 0-2.74-1.229-2.74-2.74 0-1.51 1.23-2.74 2.74-2.74 1.511 0 2.74 1.23 2.74 2.74 0 1.511-1.229 2.74-2.74 2.74z"/>
    </g>
</svg>
