<svg xmlns="http://www.w3.org/2000/svg" width="100" height="100" viewBox="0 0 100 100">
    <g fill="none" fill-rule="evenodd">
        <circle cx="50" cy="50" r="49" stroke="#0066B3" stroke-width="2"/>
        <g fill="#0066B3" fill-rule="nonzero">
            <path stroke="#0066B3" stroke-width=".5" d="M71.581 22.462a11.29 11.29 0 0 0-.18-1.033H29.976c-.068.487-.11.832-.13 1.033-.012.135-1.269 13.735-1.269 27.538s1.257 27.403 1.27 27.538c.02.216.063.56.129 1.033H71.517c.027-.516.048-.86.064-1.033.013-.135 1.27-13.735 1.27-27.538s-1.257-27.403-1.27-27.538zM69.39 76.295H32.04c-.052-.612-.122-1.48-.203-2.557H69.41c.633 0 1.147-.51 1.147-1.138 0-.63-.514-1.139-1.147-1.139H31.672c-.36-5.235-.801-13.311-.801-21.46 0-8.148.441-16.226.802-21.462H69.41c.633 0 1.147-.51 1.147-1.138 0-.629-.514-1.139-1.147-1.139H31.837c.08-1.077.151-1.945.203-2.557H69.39c.288 3.417 1.169 14.784 1.169 26.295 0 11.508-.88 22.877-1.17 26.295z"/>
            <path d="M50.714 35.553c-8.022 0-14.549 6.48-14.549 14.447 0 7.966 6.527 14.447 14.55 14.447 8.022 0 14.549-6.481 14.549-14.447 0-7.966-6.527-14.447-14.55-14.447zm1.082 26.57v-3.587l2.474-2.456c.53.274 1.12.42 1.735.42a3.747 3.747 0 0 0 2.657-1.093c1.138-1.13 2.458-5.399 2.836-6.68.117-.4.006-.83-.29-1.125a1.152 1.152 0 0 0-1.132-.287c-1.29.375-5.59 1.686-6.728 2.816a3.717 3.717 0 0 0-.691 4.331l-.861.855v-5.365c1.546-.463 2.676-1.889 2.676-3.573 0-1.599-2.106-5.544-2.752-6.715a1.148 1.148 0 0 0-1.006-.592c-.419 0-.804.227-1.005.592-.646 1.171-2.752 5.116-2.752 6.715a3.739 3.739 0 0 0 2.546 3.531v5.321l-.745-.74a3.717 3.717 0 0 0-.677-4.36c-1.139-1.13-5.438-2.441-6.728-2.816a1.153 1.153 0 0 0-1.133.288 1.132 1.132 0 0 0-.29 1.124c.378 1.281 1.699 5.55 2.837 6.68a3.747 3.747 0 0 0 2.657 1.093 3.76 3.76 0 0 0 1.706-.405l2.373 2.356v3.66C43.31 61.505 38.457 56.305 38.457 50c0-6.712 5.499-12.171 12.257-12.171 6.759 0 12.257 5.46 12.257 12.17 0 6.349-4.921 11.577-11.175 12.122z"/>
        </g>
    </g>
</svg>
