<svg xmlns="http://www.w3.org/2000/svg" xmlns:xlink="http://www.w3.org/1999/xlink" width="140" height="140" viewBox="0 0 140 140">
    <defs>
        <path id="a" d="M28.205 93.407h2.942v2.93h-2.942z"/>
        <path id="b" d="M29.593 71.143c-2.568-2.558-6.62-2.504-6.79-2.5l-1.412.028-.029 1.406c-.004.17-.057 4.206 2.51 6.764 2.415 2.405 6.141 2.502 6.72 2.502h.072l1.41-.03.03-1.405c.003-.17.057-4.207-2.51-6.765zm-3.64 3.626c-.861-.857-1.273-2.054-1.47-3.016.968.196 2.171.607 3.03 1.462.86.858 1.273 2.054 1.47 3.017-.968-.197-2.171-.607-3.03-1.463z"/>
        <path id="c" d="M59.042 48.597l-.822-1.142-1.18.77c-.143.094-3.515 2.332-4.181 5.888-.666 3.557 1.67 6.855 1.77 6.994l.821 1.142 1.18-.77c.144-.094 3.516-2.332 4.182-5.889.665-3.556-1.67-6.854-1.77-6.993zm-1.122 6.456c-.223 1.192-.981 2.207-1.667 2.913-.384-.905-.725-2.126-.502-3.316.223-1.192.982-2.208 1.667-2.914.385.905.725 2.125.502 3.317z"/>
        <path id="d" d="M25.623 87.135l-.08-1.404-1.41.021c-.158.003-3.887.086-6.17 2.527-2.282 2.442-2.1 6.151-2.091 6.308l.08 1.404 1.41-.021c.158-.002 3.886-.085 6.169-2.527 2.283-2.441 2.1-6.151 2.092-6.308zm-4.245 4.311c-.672.719-1.614 1.114-2.422 1.332.16-.819.49-1.783 1.16-2.502.673-.719 1.615-1.114 2.422-1.331-.16.818-.489 1.783-1.16 2.501z"/>
        <path id="e" d="M89.247 41.65l-.03-1.406-1.41-.029c-.169-.003-4.223-.057-6.792 2.501-2.568 2.558-2.514 6.594-2.51 6.765l.029 1.405 1.41.03h.072c.58 0 4.306-.097 6.72-2.502 2.568-2.558 2.514-6.594 2.51-6.764zm-4.591 4.692c-.86.857-2.062 1.268-3.029 1.464.198-.964.61-2.162 1.469-3.018.86-.858 2.062-1.268 3.028-1.464-.197.964-.61 2.163-1.468 3.018z"/>
        <path id="f" d="M12.671 32.184l-.726-1.206-1.239.673c-.15.082-3.694 2.04-4.648 5.53-.953 3.491 1.106 6.967 1.194 7.114l.726 1.205 1.239-.673c.15-.081 3.694-2.039 4.648-5.53.953-3.49-1.106-6.967-1.194-7.113zm-1.645 6.344c-.32 1.17-1.157 2.12-1.899 2.768-.309-.934-.549-2.178-.23-3.346.32-1.17 1.158-2.12 1.899-2.768.309.934.55 2.178.23 3.346z"/>
        <path id="g" d="M55.19 14.59c-2.568-2.558-6.62-2.505-6.791-2.5l-1.411.028-.03 1.406c-.003.17-.056 4.206 2.512 6.764 2.414 2.405 6.14 2.502 6.72 2.502h.07l1.412-.03.029-1.406c.004-.17.057-4.206-2.51-6.764zm-3.64 3.626c-.861-.858-1.273-2.054-1.47-3.017.967.197 2.171.607 3.03 1.463.86.857 1.273 2.054 1.47 3.017-.968-.197-2.171-.608-3.03-1.463z"/>
        <path id="h" d="M37.108 24.067l-.03-1.405-1.41-.03c-.171-.003-4.223-.056-6.791 2.502-2.568 2.558-2.514 6.594-2.51 6.764l.028 1.406 1.411.029h.071c.58 0 4.306-.096 6.72-2.501 2.568-2.558 2.515-6.594 2.511-6.765zm-4.59 4.693c-.862.857-2.063 1.268-3.03 1.464.198-.964.61-2.162 1.469-3.018.86-.858 2.062-1.268 3.028-1.464-.197.963-.609 2.162-1.468 3.018z"/>
        <path id="i" d="M35.007 44.109l-.03-1.406-1.41-.029c-.234-.006-5.795-.079-9.295 3.408s-3.427 9.025-3.422 9.259l.03 1.405 1.41.03h.1c.798 0 5.906-.132 9.196-3.408 3.5-3.487 3.426-9.025 3.421-9.26zm-5.502 7.187c-1.64 1.632-4.035 2.22-5.595 2.432.212-1.555.802-3.941 2.441-5.574.821-.817 1.831-1.373 2.831-1.75l-2.294 2.285 2.08 2.072 2.294-2.285c-.379.996-.937 2.002-1.757 2.82z"/>
        <path id="j" d="M90.893 7.837l-.029-1.406-1.41-.029c-.374-.008-9.224-.126-14.757 5.386-5.534 5.512-5.415 14.326-5.407 14.699l.029 1.405 1.41.03h.16c1.275 0 9.399-.209 14.597-5.386 5.533-5.512 5.415-14.327 5.407-14.7zm-7.487 12.626c-2.527 2.517-6.025 3.636-8.697 4.133l8.4-8.367-2.081-2.072-8.407 8.374c.495-2.658 1.617-6.141 4.156-8.67 3.405-3.392 8.573-4.245 11.107-4.458-.21 2.521-1.06 7.656-4.478 11.06z"/>
        <path id="k" d="M58.337 70.716c-4.554-4.537-11.82-4.44-12.126-4.434l-1.411.03-.03 1.405c-.006.305-.103 7.543 4.451 12.08 4.28 4.262 10.952 4.434 11.997 4.434h.13l1.411-.03.03-1.405c.006-.306.103-7.543-4.452-12.08zm-1.866 9.872c-1.756-.507-3.674-1.374-5.17-2.863-2.546-2.537-3.287-6.337-3.502-8.43 2.097.21 5.9.944 8.458 3.493 1.918 1.91 2.812 4.536 3.228 6.611l-4.894-4.636-2.027 2.123 3.907 3.702z"/>
        <path id="l" d="M99.91 69.201l-.029-1.405-1.41-.03c-.577-.01-14.174-.193-22.643 8.243-8.47 8.437-8.287 21.982-8.275 22.554l.029 1.406 1.41.029c.036 0 .119.002.246.002 1.967 0 14.444-.322 22.397-8.245 8.47-8.436 8.287-21.981 8.275-22.554zM89.555 89.683c-6.038 6.015-15.407 7.135-19.016 7.34.206-3.595 1.33-12.927 7.369-18.942 4.965-4.946 12.18-6.58 16.594-7.12l-8.384 8.003 2.036 2.115 8.581-8.191c-.508 4.369-2.114 11.749-7.18 16.795z"/>
        <path id="m" d="M19.441 6.531C12.733-.15 1.985-.008 1.53.001L.12.032l-.03 1.405c-.01.453-.153 11.16 6.555 17.843 6.3 6.276 16.167 6.53 17.719 6.53l.193-.001 1.411-.03.03-1.405c.009-.452.153-11.16-6.556-17.842zm1.419 16.065c-3.421-.487-8.54-1.808-12.136-5.39-3.434-3.42-4.797-8.25-5.339-11.65L7.49 9.645l2.08-2.072-4.375-4.359c3.426.487 8.572 1.808 12.166 5.389 3.446 3.433 4.808 8.286 5.345 11.687L11.96 9.587 9.88 11.66l10.98 10.937z"/>
        <path id="n" d="M81.06 83.191h2.86v2.93h-2.86z"/>
        <path id="o" d="M17.908 33.334h2.942v2.93h-2.942z"/>
        <path id="p" d="M3.565 22.345h2.942v2.93H3.565z"/>
        <path id="q" d="M43.281 32.234h2.942v2.93h-2.942z"/>
        <path id="r" d="M13.862 61.172h2.942v2.93h-2.942z"/>
        <path id="s" d="M10.553 57.51h2.942v2.93h-2.942z"/>
        <path id="t" d="M32.617 86.446h2.942v2.93h-2.942z"/>
        <path id="u" d="M36.662 69.231h2.942v2.93h-2.942z"/>
        <path id="v" d="M63.138 44.688h2.942v2.93h-2.942z"/>
        <path id="w" d="M58.725 8.426h2.942v2.93h-2.942z"/>
        <path id="x" d="M39.972 16.117h2.942v2.93h-2.942z"/>
        <path id="y" d="M91.821 22.345h2.942v2.93h-2.942z"/>
        <path id="z" d="M88.144 26.373h2.942v2.93h-2.942z"/>
        <path id="A" d="M93.292 50.916h2.942v2.93h-2.942z"/>
    </defs>
    <g fill="none" fill-rule="evenodd">
        <path fill="#CCE0EF" d="M0 0h140v140H0z"/>
        <g fill-rule="evenodd">
            <g transform="translate(20 20)">
                <use fill="#0066B3" xlink:href="#a"/>
                <use fill="#505050" xlink:href="#a"/>
            </g>
            <g transform="translate(20 20)">
                <use fill="#0066B3" xlink:href="#b"/>
                <use fill="#505050" xlink:href="#b"/>
            </g>
            <g transform="translate(20 20)">
                <use fill="#0066B3" xlink:href="#c"/>
                <use fill="#505050" xlink:href="#c"/>
            </g>
            <g transform="translate(20 20)">
                <use fill="#0066B3" xlink:href="#d"/>
                <use fill="#505050" xlink:href="#d"/>
            </g>
            <g transform="translate(20 20)">
                <use fill="#0066B3" xlink:href="#e"/>
                <use fill="#505050" xlink:href="#e"/>
            </g>
            <g transform="translate(20 20)">
                <use fill="#0066B3" xlink:href="#f"/>
                <use fill="#505050" xlink:href="#f"/>
            </g>
            <g transform="translate(20 20)">
                <use fill="#0066B3" xlink:href="#g"/>
                <use fill="#505050" xlink:href="#g"/>
            </g>
            <g transform="translate(20 20)">
                <use fill="#0066B3" xlink:href="#h"/>
                <use fill="#505050" xlink:href="#h"/>
            </g>
            <g transform="translate(20 20)">
                <use fill="#0066B3" xlink:href="#i"/>
                <use fill="#505050" xlink:href="#i"/>
            </g>
            <g transform="translate(20 20)">
                <use fill="#0066B3" xlink:href="#j"/>
                <use fill="#505050" xlink:href="#j"/>
            </g>
            <g transform="translate(20 20)">
                <use fill="#0066B3" xlink:href="#k"/>
                <use fill="#505050" xlink:href="#k"/>
            </g>
            <g transform="translate(20 20)">
                <use fill="#0066B3" xlink:href="#l"/>
                <use fill="#505050" xlink:href="#l"/>
            </g>
            <g transform="translate(20 20)">
                <use fill="#0066B3" xlink:href="#m"/>
                <use fill="#505050" xlink:href="#m"/>
            </g>
            <g transform="rotate(-45 116.632 70.514)">
                <use fill="#0066B3" xlink:href="#n"/>
                <use fill="#505050" xlink:href="#n"/>
            </g>
            <g transform="translate(20 20)">
                <use fill="#0066B3" xlink:href="#o"/>
                <use fill="#505050" xlink:href="#o"/>
            </g>
            <g transform="translate(20 20)">
                <use fill="#0066B3" xlink:href="#p"/>
                <use fill="#505050" xlink:href="#p"/>
            </g>
            <g transform="translate(20 20)">
                <use fill="#0066B3" xlink:href="#q"/>
                <use fill="#505050" xlink:href="#q"/>
            </g>
            <g transform="translate(20 20)">
                <use fill="#0066B3" xlink:href="#r"/>
                <use fill="#505050" xlink:href="#r"/>
            </g>
            <g transform="translate(20 20)">
                <use fill="#0066B3" xlink:href="#s"/>
                <use fill="#505050" xlink:href="#s"/>
            </g>
            <g transform="translate(20 20)">
                <use fill="#0066B3" xlink:href="#t"/>
                <use fill="#505050" xlink:href="#t"/>
            </g>
            <g transform="translate(20 20)">
                <use fill="#0066B3" xlink:href="#u"/>
                <use fill="#505050" xlink:href="#u"/>
            </g>
            <g transform="translate(20 20)">
                <use fill="#0066B3" xlink:href="#v"/>
                <use fill="#505050" xlink:href="#v"/>
            </g>
            <g transform="translate(20 20)">
                <use fill="#0066B3" xlink:href="#w"/>
                <use fill="#505050" xlink:href="#w"/>
            </g>
            <g transform="translate(20 20)">
                <use fill="#0066B3" xlink:href="#x"/>
                <use fill="#505050" xlink:href="#x"/>
            </g>
            <g transform="translate(20 20)">
                <use fill="#0066B3" xlink:href="#y"/>
                <use fill="#505050" xlink:href="#y"/>
            </g>
            <g transform="translate(20 20)">
                <use fill="#0066B3" xlink:href="#z"/>
                <use fill="#505050" xlink:href="#z"/>
            </g>
            <g transform="translate(20 20)">
                <use fill="#0066B3" xlink:href="#A"/>
                <use fill="#505050" xlink:href="#A"/>
            </g>
        </g>
    </g>
</svg>
