<svg xmlns="http://www.w3.org/2000/svg" width="22" height="16" viewBox="0 0 22 16">
    <path fill="#96969B" fill-rule="evenodd" d="M8.52 10.342V4.306l5.801 3.028-5.801 3.008zM21.26 3.26s-.21-1.48-.854-2.133c-.817-.856-1.732-.86-2.152-.91C15.25 0 10.742 0 10.742 0h-.01S6.225 0 3.22.218c-.42.05-1.335.053-2.152.91C.424 1.778.215 3.26.215 3.26S0 4.999 0 6.737v1.63a32.5 32.5 0 0 0 .215 3.477s.21 1.48.853 2.132c.817.856 1.89.83 2.368.919 1.718.165 7.3.216 7.3.216s4.513-.007 7.518-.224c.42-.05 1.335-.055 2.152-.91.643-.652.853-2.133.853-2.133s.215-1.738.215-3.477v-1.63c0-1.738-.215-3.477-.215-3.477z"/>
</svg>
