<svg xmlns="http://www.w3.org/2000/svg" width="188" height="50" viewBox="0 0 188 50">
    <g fill="none" fill-rule="evenodd">
        <path fill="#FEFEFE" d="M4.308 5.736H4.15c.008-3.508 8.047-2.028 10.406-2.049 3.63-.031 6.919-1.42 10.424-1.855 3.755-.467 7.34.72 11.103 1.232 2.268.309 4.543.724 6.816.942 1.453.14 3.083-.407 4.257.501 1.917 1.483 2.2 5.202 2.546 7.371.447 2.781.84 5.535.786 8.44a26.84 26.84 0 0 1-1.907 9.435c-.843 2.13-2.382 4.698-4.209 6.092-1.144 3.335-9.47 8.48-12.635 10.24-1.368.551-2.405 1.237-3.748 1.69-1.899.639-2.259.69-4.006-.285-4.113-2.295-8.944-4.317-12.746-7.245-2.74-2.11-5.367-4.282-6.565-7.78-1.568-4.578-3.635-8.728-3.357-13.808.248-4.555 1.11-9.061 2.992-12.92"/>
        <path fill="#049339" d="M24.867 10.593V25.12c-1.333-1.33-2.467-2.941-3.228-4.558.568 2.469 1.895 4.654 3.228 6.455v11.3c-2.752-1.995-5.22-4.553-6.456-7.403 1.046 4.935 5.411 9.21 6.456 10.156v7.03c0 .096-.38-.194-.474-.194l-3.607-.567s-.097-.096-.097-.192v-1.42c-2.278-.478-5.124-1.52-7.596-3.71-5.41-4.932-6.926-12.91-1.513-18.227 4.459-4.559 12.054-7.406 13.287-13.198"/>
        <path fill="#0066B3" d="M25.818 1.953v4.464c1.611 4.272 7.682 7.31 11.292 10.825 4.65 4.458 3.228 10.25-1.423 14.338-3.797 3.322-8.732 3.42-9.87 3.42v2.464s6.738.38 11.673-4.087c5.508-4.935 7.118-12.149 1.707-17.47-4.555-4.551-12.146-8.163-13.38-13.954"/>
        <path fill="#0066B3" d="M33.317 17.903c5.31 5.414 2.462 9.778-4.087 13.865 4.936-4.844 7.406-9.495 4.087-13.865"/>
        <path fill="#0066B3" d="M25.722.337v1.616s-3.227 1.327-9.49 2.086c-6.173.668-10.82.668-10.82.668s-3.608 5.696-3.608 14.622c0 3.703 1.612 12.155 7.686 18.516 6.36 6.742 16.232 9.871 16.232 9.871v1.617s-12.147-3.227-19.46-12.437C1.328 30.626 0 22.746 0 18.661 0 9.545 4.46 2.995 4.46 2.995s4.744.192 10.346-.473C20.5 1.953 25.722.337 25.722.337zm0 48.996s12.148-3.227 19.454-12.437c4.933-6.27 6.264-14.15 6.264-18.235 0-9.116-4.459-15.666-4.459-15.666s-4.744.192-10.345-.473C31.036 1.953 25.722.337 25.722.337v1.616s3.228 1.327 9.49 2.086c6.17.668 10.918.668 10.918.668s3.603 5.696 3.603 14.622c0 3.703-1.709 12.155-7.783 18.516-6.359 6.742-16.228 9.871-16.228 9.871v1.617zM99.467 45.25v.097h-20.6l2.662-1.995v-9.21c-1.615 0-2.94.473-3.984 1.232.472-1.8 1.8-2.658 3.984-2.658V25.12l-2.661-1.993h19.934c-1.421 1.614-2.656 3.417-3.417 5.314-.566-1.614-1.423-2.657-2.561-3.225-.853-.378-2.182-.668-4.08-.668-.952 0-2.09.097-3.322.193v7.974h4.932l2.374-2.66V36.8l-2.374-2.658h-4.932v9.684c1.137.096 1.992.096 2.468.096 2.372 0 3.987-.192 4.838-.669.95-.472 2.09-1.708 3.228-3.605.374 1.327.757 2.371 1.329 3.23.38.664 1.138 1.421 2.182 2.373zm0-10.067v.287s-.097 0-.193.096c.096-.192.193-.284.193-.383zM76.878 45.347h-9.302l2.755-1.995v-8.64c-1.233.287-2.471.47-3.704.47-1.803 0-3.414-.28-4.84-.662v8.832l2.75 1.995h-9.3l2.754-1.995v-8.923c-1.523 0-2.754.472-3.607 1.42.285-.76.666-1.517 1.327-2.181.757-.761 1.521-1.139 2.28-1.139v-7.408l-2.754-1.993h9.3l-2.75 1.993v7.69c2.09.566 3.795.954 5.316.954.757 0 1.802-.191 3.228-.48v-8.164l-2.755-1.993h9.302l-2.753 1.993v18.23l2.753 1.996zm22.589 0v-.096c.099 0 .099.096.19.096h-.19zm12.15-22.125c-.663-.094-1.33-.094-2.088-.094h-8.828l2.66 1.993v8.256c-1.81 0-3.136.574-3.894 1.806v.287c1.234-.47 2.373-.666 3.704-.666h.19v8.548l-2.66 1.995h9.773l-3.319-2.184v-7.98h1.614c.664.099 1.233.099 1.705.099h1.143v-1.708c-.574.094-1.233.19-1.9.19-1.138 0-1.899-.096-2.562-.19v-8.646a10.663 10.663 0 0 1 2.753-.379c.566 0 1.135.097 1.709.097v-1.424zm31.795-.094H119.97c1.324 1.897 2.275 3.7 2.847 5.41.474-1.426 1.043-2.467 1.609-2.943.76-.667 1.809-1.046 3.23-1.046.38 0 1.141.097 2.088.193v18.61l-2.658 1.995h9.207l-2.659-1.995v-18.61c.95-.096 1.618-.193 2.09-.193 1.42 0 2.467.379 3.132 1.046.663.476 1.235 1.517 1.71 2.944.566-1.71 1.517-3.514 2.846-5.41zm-31.795 12.154v-1.708c.853-.1 1.705-.384 2.276-.762 1.424-.759 2.09-1.897 2.09-3.511 0-2.66-1.52-4.18-4.366-4.655v-1.424c1.897.095 3.508.377 4.742.854 2.375.949 3.611 2.752 3.611 5.225 0 3.7-2.847 5.698-8.353 5.98zm56.662-8.454c-1.233 1.899-1.901 4.18-1.901 7.03 0 3.134.668 5.602 1.9 7.594V26.828zm0-5.6c-1.045.472-1.805.761-2.372 1.045-1.71.569-3.135.855-4.555.855 1.041.757 1.514 1.518 1.514 2.467 0 .95-.57 2.563-1.798 5.031l-4.085 7.692-6.83-13.576 2.751-1.614h-9.303l2.754 1.614 8.635 17.186c-1.517 2.279-2.942 3.894-4.461 4.747.57.19 1.14.569 1.71 1.14.95.855 1.514 1.33 1.514 1.33.476-1.614.952-3.039 1.425-4.082.953-1.9 1.617-3.326 2.09-4.277l5.983-11.393c1.04-1.9 1.706-3.228 2.18-3.987.947-1.52 1.9-2.66 2.848-3.515v-.663zm0 .663v-.663c.57-.285 1.14-.571 1.897-.858v.098c-.756.567-1.327 1.045-1.897 1.423zm0 19.561V26.828c.282-.475.57-.852.949-1.233 1.897-1.996 4.553-3.04 7.975-3.04 1.04 0 2.274.287 3.7.762 1.422.474 2.374.759 2.847.759.95 0 1.802-.382 2.75-.948-1.33 2.278-2.181 4.553-2.654 6.832-.86-3.984-3.228-5.884-6.93-5.884-2.373 0-4.084 1.045-5.218 3.32-.763 1.617-1.141 3.8-1.141 6.462 0 2.942.472 5.318 1.519 7.117 1.233 2.377 3.228 3.516 5.884 3.516 2.085 0 3.607-.57 4.46-1.805.66-.95 1.138-2.561 1.232-4.747.573.57 1.143 1.333 1.71 1.995a3.874 3.874 0 0 0 1.807 1.518 17.584 17.584 0 0 1-4.09 3.417c-1.512.762-3.222 1.14-5.215 1.14-3.799 0-6.647-1.14-8.636-3.323a5.942 5.942 0 0 1-.95-1.234zM184.34 16.475v2.316h-1.637v-5.472h1.636v2.057h1.971V13.32h1.636v5.472h-1.636v-2.316h-1.97zm-6.966.404l2.24-3.56h1.733v5.472h-1.636v-3.546l-2.23 3.546h-1.743v-5.472h1.636v3.56zm-8.957 1.933v-1.13a.547.547 0 0 0 .269.02c.352.008.597-.123.737-.393.14-.269.221-.82.242-1.653l.054-2.337h4.662v5.472h-1.636v-4.373h-1.465l-.021 1.228c-.022 1.22-.19 2.064-.506 2.53-.316.468-.883.7-1.701.7-.093 0-.192-.005-.296-.015a4.79 4.79 0 0 1-.34-.049zm-2.132-2.09h1.615c-.058.654-.312 1.196-.765 1.627-.452.43-1.098.646-1.937.646-.912 0-1.626-.253-2.143-.759-.517-.506-.775-1.23-.775-2.17-.007-.898.242-1.614.748-2.15.506-.534 1.262-.802 2.267-.802.768 0 1.367.192 1.798.577.43.384.681.91.753 1.577h-1.572c-.05-.366-.16-.633-.328-.802-.169-.169-.408-.253-.716-.253-.402 0-.71.144-.926.43-.215.288-.323.722-.323 1.304 0 .654.11 1.142.328 1.465.22.323.519.485.9.485a.999.999 0 0 0 .758-.313c.198-.208.304-.495.318-.861zm-7.816 1.175c.423.007.745-.142.963-.447.22-.306.329-.774.329-1.406-.007-.617-.119-1.077-.334-1.379-.215-.301-.535-.452-.958-.452-.416.007-.736.16-.958.458-.223.298-.334.756-.334 1.373 0 .632.11 1.1.328 1.406.22.305.54.454.964.447zm0 1.098c-.897-.007-1.622-.258-2.175-.754-.552-.495-.825-1.228-.818-2.197 0-.905.26-1.618.78-2.138.52-.52 1.258-.784 2.213-.792.897 0 1.618.25 2.164.749.545.499.822 1.226.83 2.181-.008.97-.287 1.703-.835 2.203-.55.499-1.27.748-2.16.748zm-8.075-2.95c0 .595.113 1.053.34 1.372.225.32.54.48.942.48.394 0 .705-.16.93-.48.227-.32.34-.777.34-1.373 0-.617-.12-1.077-.36-1.379-.241-.301-.544-.452-.91-.452-.374 0-.68.15-.921.452-.24.302-.361.762-.361 1.38zm-1.56-2.726h1.539l-.011.657h.032c.223-.28.481-.492.776-.636.294-.143.624-.218.99-.226.768 0 1.374.266 1.82.797.445.532.667 1.25.667 2.155 0 .883-.228 1.592-.684 2.127-.456.535-1.067.802-1.835.802-.309 0-.616-.063-.921-.188a1.679 1.679 0 0 1-.737-.577v2.553h-1.637V13.32zm-9.841 7.464v-1.099a1.557 1.557 0 0 0 .528.076c.2 0 .362-.056.484-.167.122-.111.226-.31.313-.598l.075-.27-2.38-5.406h1.965l1.276 3.569.978-3.569h1.746l-1.906 5.762c-.25.754-.522 1.243-.812 1.465-.292.223-.663.334-1.115.334-.216 0-.426-.01-.63-.032a13.006 13.006 0 0 1-.522-.065zm-4.619-6.365h-1.808v-1.099h5.254v1.099h-1.809v4.373h-1.637v-4.373zm-3.94 2.305h1.615c-.057.653-.312 1.195-.765 1.626-.452.43-1.098.646-1.938.646-.91 0-1.625-.253-2.142-.759-.516-.506-.775-1.23-.775-2.17-.007-.898.242-1.614.748-2.15.506-.534 1.261-.802 2.266-.802.769 0 1.368.192 1.798.577.431.384.682.91.754 1.577h-1.572c-.05-.366-.16-.633-.328-.802-.169-.169-.408-.253-.716-.253-.402 0-.71.144-.926.43-.216.288-.323.722-.323 1.304 0 .654.11 1.142.328 1.465.22.323.52.485.9.485a.998.998 0 0 0 .758-.313c.198-.208.304-.495.318-.861zm-9.087.156l2.24-3.56h1.733v5.472h-1.636v-3.546l-2.23 3.546h-1.743v-5.472h1.636v3.56zm-5.286-1.85l1.012-1.71h1.884l-1.938 2.65 2.035 2.822h-1.882l-1.11-1.787-1.108 1.787h-1.886l2.046-2.82-1.949-2.652h1.9l.996 1.71zm-5.297 1.5v-.345c-.179.08-.303.131-.371.156-.069.025-.303.07-.705.135-.338.057-.584.149-.738.275a.598.598 0 0 0-.22.511c0 .216.08.375.242.48.161.103.36.156.597.156.309 0 .585-.117.83-.35.243-.234.365-.573.365-1.018zm-1.894-1.444h-1.562c.022-.675.264-1.172.727-1.491.463-.32 1.079-.48 1.847-.48.875 0 1.514.173 1.916.517.402.345.6.855.592 1.53l-.032 2.499c-.007.409.014.678.064.808.05.129.137.204.259.226v.097h-1.723l-.14-.54h-.032c-.187.23-.44.41-.76.54a2.98 2.98 0 0 1-1.07.204c-.625 0-1.098-.14-1.422-.42-.323-.28-.484-.668-.484-1.163-.007-.46.138-.83.436-1.11.298-.28.827-.477 1.588-.592.99-.15 1.516-.258 1.577-.323.062-.065.095-.165.103-.302v-.15a.742.742 0 0 0-.237-.528c-.144-.13-.36-.194-.646-.194-.323 0-.573.074-.748.22-.176.148-.26.365-.253.652zm-8.226 1.875h1.55c.022.315.133.55.334.705.201.154.47.232.808.232.344 0 .619-.06.824-.178a.57.57 0 0 0 .306-.522c0-.23-.079-.405-.236-.523-.158-.118-.406-.181-.744-.188h-.634v-1.024h.677c.273.008.48-.043.62-.15a.517.517 0 0 0 .21-.431.551.551 0 0 0-.275-.496c-.183-.115-.443-.172-.78-.172-.302 0-.54.074-.717.22-.175.148-.263.362-.263.642h-1.507c-.015-.64.199-1.126.64-1.46.441-.334 1.1-.5 1.975-.5.869 0 1.52.13 1.955.393.434.262.651.658.651 1.19 0 .323-.088.58-.264.77-.176.19-.44.332-.791.425v.033c.373.078.66.227.861.447.201.218.302.518.302.899 0 .567-.217.996-.652 1.287-.434.29-1.132.436-2.094.436-.918 0-1.602-.176-2.05-.527-.45-.352-.684-.855-.706-1.508zm-9.108-.081l2.24-3.56h1.733v5.472h-1.637v-3.546l-2.228 3.546h-1.745v-5.472h1.637v3.56zm-4.414-.717c-.007-.639-.126-1.123-.356-1.453-.229-.331-.53-.496-.903-.496-.388 0-.699.165-.932.496-.233.33-.346.814-.339 1.453 0 .59.113 1.025.339 1.31.226.283.537.425.932.425.423 0 .737-.155.942-.464.204-.308.31-.732.317-1.27zm.021-5.417h1.336c-.029.323-.106.588-.232.797-.125.208-1.06.52-2.805.937-.595.143-1.017.405-1.264.786-.248.38-.39.883-.426 1.508h.032c.137-.481.411-.878.824-1.19.413-.312.931-.469 1.556-.469.775.008 1.412.278 1.91.814.5.535.749 1.243.749 2.127-.007.919-.27 1.639-.791 2.16-.52.52-1.215.78-2.084.78-1.033 0-1.806-.33-2.32-.99-.513-.661-.77-1.645-.77-2.952 0-1.156.195-2.045.582-2.666.388-.62 1.023-1.01 1.906-1.168 1.14-.201 1.72-.318 1.738-.35.018-.033.038-.074.06-.124zm-8.225 7.152c.424.007.745-.142.964-.447.219-.306.328-.774.328-1.406-.007-.617-.118-1.077-.333-1.379-.216-.301-.535-.452-.959-.452-.416.007-.736.16-.958.458-.222.298-.333.756-.333 1.373 0 .632.11 1.1.328 1.406.219.305.54.454.963.447zm0 1.098c-.897-.007-1.622-.258-2.174-.754-.553-.495-.826-1.228-.819-2.197 0-.905.26-1.618.78-2.138.521-.52 1.259-.784 2.213-.792.898 0 1.619.25 2.164.749.546.499.822 1.226.83 2.181-.008.97-.286 1.703-.835 2.203-.55.499-1.269.748-2.159.748zm-5.393-2.272h1.614c-.057.653-.312 1.195-.764 1.626-.452.43-1.098.646-1.938.646-.911 0-1.625-.253-2.142-.759-.517-.506-.775-1.23-.775-2.17-.007-.898.242-1.614.748-2.15.506-.534 1.261-.802 2.266-.802.768 0 1.367.192 1.798.577.43.384.682.91.754 1.577h-1.572c-.05-.366-.16-.633-.329-.802-.168-.169-.407-.253-.716-.253-.401 0-.71.144-.925.43-.216.288-.324.722-.324 1.304 0 .654.11 1.142.329 1.465.219.323.519.485.899.485a1 1 0 0 0 .759-.313c.197-.208.303-.495.318-.861zm-6.719-.194v-.345c-.179.08-.303.131-.37.156-.07.025-.304.07-.706.135-.337.057-.583.149-.737.275a.597.597 0 0 0-.221.511c0 .216.08.375.242.48.161.103.36.156.597.156.309 0 .586-.117.83-.35.244-.234.365-.573.365-1.018zm-1.894-1.444H63.35c.021-.675.264-1.172.726-1.491.463-.32 1.079-.48 1.847-.48.875 0 1.514.173 1.916.517.402.345.6.855.592 1.53L68.4 17.66c-.007.409.014.678.064.808.051.129.137.204.259.226v.097H67l-.14-.54h-.032c-.186.23-.44.41-.759.54-.32.129-.676.197-1.071.204-.625 0-1.098-.14-1.422-.42-.322-.28-.484-.668-.484-1.163-.007-.46.138-.83.436-1.11.298-.28.827-.477 1.588-.592.99-.15 1.517-.258 1.578-.323.06-.065.095-.165.102-.302v-.15a.744.744 0 0 0-.237-.528c-.144-.13-.359-.194-.646-.194-.323 0-.572.074-.748.22-.176.148-.26.365-.253.652zm-9.83 1.11h1.723c.014.467.176.808.484 1.023.309.215.74.323 1.292.323.51.007.892-.08 1.147-.264a.854.854 0 0 0 .382-.727c0-.308-.11-.538-.328-.689-.22-.151-.54-.226-.964-.226h-1.066v-1.39h.883c.43.007.745-.06.942-.204.198-.144.296-.356.296-.636s-.122-.5-.366-.662c-.244-.162-.61-.243-1.098-.243-.438 0-.773.095-1.007.286-.233.19-.357.494-.37.91h-1.734c.05-.876.328-1.538.834-1.987.506-.449 1.33-.673 2.47-.673 1.042 0 1.831.186 2.37.56.538.373.81.894.818 1.561 0 .439-.123.803-.366 1.094-.244.29-.6.479-1.066.565v.022c.552.115.967.323 1.243.624.276.302.418.73.425 1.282 0 .79-.3 1.364-.904 1.724-.603.359-1.468.538-2.595.538-1.205 0-2.072-.24-2.6-.722-.527-.48-.809-1.177-.845-2.09z"/>
    </g>
</svg>
